<?xml version="1.0" encoding="UTF-8"?>
<svg height="128px" viewBox="0 0 128 128" width="128px" xmlns="http://www.w3.org/2000/svg" xmlns:xlink="http://www.w3.org/1999/xlink">
    <filter id="a" height="100%" width="100%" x="0%" y="0%">
        <feColorMatrix color-interpolation-filters="sRGB" values="0 0 0 0 1 0 0 0 0 1 0 0 0 0 1 0 0 0 1 0"/>
    </filter>
    <linearGradient id="b" gradientTransform="matrix(1.009615 0 0 1.009616 -16.962305 -177.901729)" gradientUnits="userSpaceOnUse" x1="28.687302" x2="38.060349" y1="285.349854" y2="285.349854">
        <stop offset="0" stop-color="#756f8f" stop-opacity="0.5"/>
        <stop offset="0.609589" stop-color="#3d3846"/>
        <stop offset="1" stop-color="#3d3846" stop-opacity="0"/>
    </linearGradient>
    <linearGradient id="c" gradientTransform="matrix(-1.009615 0 0 1.009616 144.963149 -177.900865)" gradientUnits="userSpaceOnUse" x1="28.687302" x2="38.060349" y1="285.349854" y2="285.349854">
        <stop offset="0" stop-color="#756f8f" stop-opacity="0.5"/>
        <stop offset="0.738356" stop-color="#3d3846"/>
        <stop offset="1" stop-color="#3d3846" stop-opacity="0"/>
    </linearGradient>
    <clipPath id="d">
        <rect height="128" width="128"/>
    </clipPath>
    <clipPath id="e">
        <rect height="128" width="128"/>
    </clipPath>
    <mask id="f">
        <g filter="url(#a)">
            <g clip-path="url(#e)" filter="url(#a)">
                <g clip-path="url(#d)">
                    <path d="m 20.078125 12 h 87.84375 c 4.460937 0 8.078125 3.617188 8.078125 8.078125 v 87.84375 c 0 4.460937 -3.617188 8.078125 -8.078125 8.078125 h -87.84375 c -4.460937 0 -8.078125 -3.617188 -8.078125 -8.078125 v -87.84375 c 0 -4.460937 3.617188 -8.078125 8.078125 -8.078125 z m 0 0" fill="#241f31"/>
                    <path d="m 12 104.382812 v 3.539063 c 0 4.476563 3.601562 8.078125 8.078125 8.078125 h 1.386719 v -11.617188 z m 0 0" fill="url(#b)"/>
                    <path d="m 116 104.386719 v 3.535156 c 0 4.476563 -3.601562 8.078125 -8.078125 8.078125 h -1.386719 v -11.613281 z m 0 0" fill="url(#c)"/>
                    <path d="m 20.078125 12 h 87.84375 c 4.460937 0 8.078125 3.40625 8.078125 7.609375 v 82.78125 c 0 4.203125 -3.617188 7.609375 -8.078125 7.609375 h -87.84375 c -4.460937 0 -8.078125 -3.40625 -8.078125 -7.609375 v -82.78125 c 0 -4.203125 3.617188 -7.609375 8.078125 -7.609375 z m 0 0" fill="#3d3846"/>
                    <path d="m 31.601562 22 h 22.796876 c 4.199218 0 7.601562 3.136719 7.601562 7.011719 v 23.976562 c 0 3.875 -3.402344 7.011719 -7.601562 7.011719 h -22.796876 c -4.199218 0 -7.601562 -3.136719 -7.601562 -7.011719 v -23.976562 c 0 -3.875 3.402344 -7.011719 7.601562 -7.011719 z m 0 0" fill="#5e5c64"/>
                    <path d="m 34.589844 25 h 16.820312 c 4.191406 0 7.589844 3.132812 7.589844 7 v 18 c 0 3.867188 -3.398438 7 -7.589844 7 h -16.820312 c -4.191406 0 -7.589844 -3.132812 -7.589844 -7 v -18 c 0 -3.867188 3.398438 -7 7.589844 -7 z m 0 0" fill="#ed333b"/>
                    <path d="m 34.589844 25 h 16.820312 c 4.191406 0 7.589844 2.742188 7.589844 6.125 v 15.75 c 0 3.382812 -3.398438 6.125 -7.589844 6.125 h -16.820312 c -4.191406 0 -7.589844 -2.742188 -7.589844 -6.125 v -15.75 c 0 -3.382812 3.398438 -6.125 7.589844 -6.125 z m 0 0" fill="#f66151"/>
                    <path d="m 31.601562 64 h 22.796876 c 4.199218 0 7.601562 3.136719 7.601562 7.011719 v 23.976562 c 0 3.875 -3.402344 7.011719 -7.601562 7.011719 h -22.796876 c -4.199218 0 -7.601562 -3.136719 -7.601562 -7.011719 v -23.976562 c 0 -3.875 3.402344 -7.011719 7.601562 -7.011719 z m 0 0" fill="#5e5c64"/>
                    <path d="m 34.589844 67 h 16.820312 c 4.191406 0 7.589844 3.132812 7.589844 7 v 18 c 0 3.867188 -3.398438 7 -7.589844 7 h -16.820312 c -4.191406 0 -7.589844 -3.132812 -7.589844 -7 v -18 c 0 -3.867188 3.398438 -7 7.589844 -7 z m 0 0" fill="#2ec27e"/>
                    <path d="m 34.589844 67 h 16.820312 c 4.191406 0 7.589844 2.742188 7.589844 6.125 v 15.75 c 0 3.382812 -3.398438 6.125 -7.589844 6.125 h -16.820312 c -4.191406 0 -7.589844 -2.742188 -7.589844 -6.125 v -15.75 c 0 -3.382812 3.398438 -6.125 7.589844 -6.125 z m 0 0" fill="#8ff0a4"/>
                    <path d="m 73.601562 64 h 22.796876 c 4.199218 0 7.601562 3.136719 7.601562 7.011719 v 23.976562 c 0 3.875 -3.402344 7.011719 -7.601562 7.011719 h -22.796876 c -4.199218 0 -7.601562 -3.136719 -7.601562 -7.011719 v -23.976562 c 0 -3.875 3.402344 -7.011719 7.601562 -7.011719 z m 0 0" fill="#5e5c64"/>
                    <path d="m 76.589844 67 h 16.820312 c 4.191406 0 7.589844 3.132812 7.589844 7 v 18 c 0 3.867188 -3.398438 7 -7.589844 7 h -16.820312 c -4.191406 0 -7.589844 -3.132812 -7.589844 -7 v -18 c 0 -3.867188 3.398438 -7 7.589844 -7 z m 0 0" fill="#ff7800"/>
                    <path d="m 76.589844 67 h 16.820312 c 4.191406 0 7.589844 2.742188 7.589844 6.125 v 15.75 c 0 3.382812 -3.398438 6.125 -7.589844 6.125 h -16.820312 c -4.191406 0 -7.589844 -2.742188 -7.589844 -6.125 v -15.75 c 0 -3.382812 3.398438 -6.125 7.589844 -6.125 z m 0 0" fill="#ffbe6f"/>
                    <path d="m 73.601562 22 h 22.796876 c 4.199218 0 7.601562 3.136719 7.601562 7.011719 v 23.976562 c 0 3.875 -3.402344 7.011719 -7.601562 7.011719 h -22.796876 c -4.199218 0 -7.601562 -3.136719 -7.601562 -7.011719 v -23.976562 c 0 -3.875 3.402344 -7.011719 7.601562 -7.011719 z m 0 0" fill="#5e5c64"/>
                    <path d="m 76.589844 25 h 16.820312 c 4.191406 0 7.589844 3.132812 7.589844 7 v 18 c 0 3.867188 -3.398438 7 -7.589844 7 h -16.820312 c -4.191406 0 -7.589844 -3.132812 -7.589844 -7 v -18 c 0 -3.867188 3.398438 -7 7.589844 -7 z m 0 0" fill="#9a9996"/>
                    <path d="m 76.589844 25 h 16.820312 c 4.191406 0 7.589844 2.742188 7.589844 6.125 v 15.75 c 0 3.382812 -3.398438 6.125 -7.589844 6.125 h -16.820312 c -4.191406 0 -7.589844 -2.742188 -7.589844 -6.125 v -15.75 c 0 -3.382812 3.398438 -6.125 7.589844 -6.125 z m 0 0" fill="#deddda"/>
                </g>
            </g>
        </g>
    </mask>
    <mask id="g">
        <g filter="url(#a)">
            <rect fill-opacity="0.8" height="184.32" width="184.32" x="-28.16" y="-28.16"/>
        </g>
    </mask>
    <linearGradient id="h" gradientTransform="matrix(0 0.37 -0.98462 0 295.38501 -30.360001)" gradientUnits="userSpaceOnUse" x1="300" x2="428" y1="235" y2="235">
        <stop offset="0" stop-color="#f9f06b"/>
        <stop offset="1" stop-color="#f5c211"/>
    </linearGradient>
    <clipPath id="i">
        <rect height="128" width="128"/>
    </clipPath>
    <clipPath id="j">
        <rect height="128" width="128"/>
    </clipPath>
    <path d="m 20.078125 12 h 87.84375 c 4.460937 0 8.078125 3.617188 8.078125 8.078125 v 87.84375 c 0 4.460937 -3.617188 8.078125 -8.078125 8.078125 h -87.84375 c -4.460937 0 -8.078125 -3.617188 -8.078125 -8.078125 v -87.84375 c 0 -4.460937 3.617188 -8.078125 8.078125 -8.078125 z m 0 0" fill="#241f31"/>
    <path d="m 12 104.382812 v 3.539063 c 0 4.476563 3.601562 8.078125 8.078125 8.078125 h 1.386719 v -11.617188 z m 0 0" fill="url(#b)"/>
    <path d="m 116 104.386719 v 3.535156 c 0 4.476563 -3.601562 8.078125 -8.078125 8.078125 h -1.386719 v -11.613281 z m 0 0" fill="url(#c)"/>
    <path d="m 20.078125 12 h 87.84375 c 4.460937 0 8.078125 3.40625 8.078125 7.609375 v 82.78125 c 0 4.203125 -3.617188 7.609375 -8.078125 7.609375 h -87.84375 c -4.460937 0 -8.078125 -3.40625 -8.078125 -7.609375 v -82.78125 c 0 -4.203125 3.617188 -7.609375 8.078125 -7.609375 z m 0 0" fill="#3d3846"/>
    <path d="m 31.601562 22 h 22.796876 c 4.199218 0 7.601562 3.136719 7.601562 7.011719 v 23.976562 c 0 3.875 -3.402344 7.011719 -7.601562 7.011719 h -22.796876 c -4.199218 0 -7.601562 -3.136719 -7.601562 -7.011719 v -23.976562 c 0 -3.875 3.402344 -7.011719 7.601562 -7.011719 z m 0 0" fill="#5e5c64"/>
    <path d="m 34.589844 25 h 16.820312 c 4.191406 0 7.589844 3.132812 7.589844 7 v 18 c 0 3.867188 -3.398438 7 -7.589844 7 h -16.820312 c -4.191406 0 -7.589844 -3.132812 -7.589844 -7 v -18 c 0 -3.867188 3.398438 -7 7.589844 -7 z m 0 0" fill="#ed333b"/>
    <path d="m 34.589844 25 h 16.820312 c 4.191406 0 7.589844 2.742188 7.589844 6.125 v 15.75 c 0 3.382812 -3.398438 6.125 -7.589844 6.125 h -16.820312 c -4.191406 0 -7.589844 -2.742188 -7.589844 -6.125 v -15.75 c 0 -3.382812 3.398438 -6.125 7.589844 -6.125 z m 0 0" fill="#f66151"/>
    <path d="m 31.601562 64 h 22.796876 c 4.199218 0 7.601562 3.136719 7.601562 7.011719 v 23.976562 c 0 3.875 -3.402344 7.011719 -7.601562 7.011719 h -22.796876 c -4.199218 0 -7.601562 -3.136719 -7.601562 -7.011719 v -23.976562 c 0 -3.875 3.402344 -7.011719 7.601562 -7.011719 z m 0 0" fill="#5e5c64"/>
    <path d="m 34.589844 67 h 16.820312 c 4.191406 0 7.589844 3.132812 7.589844 7 v 18 c 0 3.867188 -3.398438 7 -7.589844 7 h -16.820312 c -4.191406 0 -7.589844 -3.132812 -7.589844 -7 v -18 c 0 -3.867188 3.398438 -7 7.589844 -7 z m 0 0" fill="#2ec27e"/>
    <path d="m 34.589844 67 h 16.820312 c 4.191406 0 7.589844 2.742188 7.589844 6.125 v 15.75 c 0 3.382812 -3.398438 6.125 -7.589844 6.125 h -16.820312 c -4.191406 0 -7.589844 -2.742188 -7.589844 -6.125 v -15.75 c 0 -3.382812 3.398438 -6.125 7.589844 -6.125 z m 0 0" fill="#8ff0a4"/>
    <path d="m 73.601562 64 h 22.796876 c 4.199218 0 7.601562 3.136719 7.601562 7.011719 v 23.976562 c 0 3.875 -3.402344 7.011719 -7.601562 7.011719 h -22.796876 c -4.199218 0 -7.601562 -3.136719 -7.601562 -7.011719 v -23.976562 c 0 -3.875 3.402344 -7.011719 7.601562 -7.011719 z m 0 0" fill="#5e5c64"/>
    <path d="m 76.589844 67 h 16.820312 c 4.191406 0 7.589844 3.132812 7.589844 7 v 18 c 0 3.867188 -3.398438 7 -7.589844 7 h -16.820312 c -4.191406 0 -7.589844 -3.132812 -7.589844 -7 v -18 c 0 -3.867188 3.398438 -7 7.589844 -7 z m 0 0" fill="#ff7800"/>
    <path d="m 76.589844 67 h 16.820312 c 4.191406 0 7.589844 2.742188 7.589844 6.125 v 15.75 c 0 3.382812 -3.398438 6.125 -7.589844 6.125 h -16.820312 c -4.191406 0 -7.589844 -2.742188 -7.589844 -6.125 v -15.75 c 0 -3.382812 3.398438 -6.125 7.589844 -6.125 z m 0 0" fill="#ffbe6f"/>
    <path d="m 73.601562 22 h 22.796876 c 4.199218 0 7.601562 3.136719 7.601562 7.011719 v 23.976562 c 0 3.875 -3.402344 7.011719 -7.601562 7.011719 h -22.796876 c -4.199218 0 -7.601562 -3.136719 -7.601562 -7.011719 v -23.976562 c 0 -3.875 3.402344 -7.011719 7.601562 -7.011719 z m 0 0" fill="#5e5c64"/>
    <path d="m 76.589844 25 h 16.820312 c 4.191406 0 7.589844 3.132812 7.589844 7 v 18 c 0 3.867188 -3.398438 7 -7.589844 7 h -16.820312 c -4.191406 0 -7.589844 -3.132812 -7.589844 -7 v -18 c 0 -3.867188 3.398438 -7 7.589844 -7 z m 0 0" fill="#9a9996"/>
    <path d="m 76.589844 25 h 16.820312 c 4.191406 0 7.589844 2.742188 7.589844 6.125 v 15.75 c 0 3.382812 -3.398438 6.125 -7.589844 6.125 h -16.820312 c -4.191406 0 -7.589844 -2.742188 -7.589844 -6.125 v -15.75 c 0 -3.382812 3.398438 -6.125 7.589844 -6.125 z m 0 0" fill="#deddda"/>
    <g mask="url(#f)">
        <g clip-path="url(#j)">
            <g mask="url(#g)">
                <g clip-path="url(#i)">
                    <path d="m 128 80.640625 v 47.359375 h -128 v -47.359375 z m 0 0" fill="url(#h)"/>
                    <path d="m 13.308594 80.640625 l 47.355468 47.359375 h 21.214844 l -47.359375 -47.359375 z m 42.421875 0 l 47.363281 47.359375 h 21.214844 l -47.363282 -47.359375 z m 42.429687 0 l 29.839844 29.839844 v -21.210938 l -8.628906 -8.628906 z m -98.160156 7.90625 v 21.214844 l 18.238281 18.238281 h 21.214844 z m 0 0"/>
                </g>
            </g>
        </g>
    </g>
</svg>
